<svg width="2136" height="500" viewBox="0 0 2136 500" fill="none" xmlns="http://www.w3.org/2000/svg">
<path d="M128.092 185.XMR.798C159.547 239.244 154.732 250.428 145.101 258.35C135.626 266.117 121.956 270 104.093 270H17.65V105.036H101.763C118.539 105.036 131.742 108.686 141.373 115.987C151.004 123.288 155.819 133.928 155.819 147.908C155.819 157.539 153.256 165.694 148.13 172.373C143.159 178.897 136.48 183.246 128.092 185.421ZM69.376 169.344H89.414C94.074 169.344 97.XMR996 150.937 99.666 149.073C97.4913 147.054 94.074 146.044 89.414 146.044H69.376V169.344ZM92.909 228.526C97.569 228.526 100.986 227.672 103.161 225.963C105.491 224.099 106.656 221.148 106.656 217.109C106.656 209.187 102.074 205.226 92.909 205.226H69.376V228.526H92.909ZM257.312 271.631C241.779 271.631 227.488 267.981 214.44 260.68C201.548 253.379 191.296 243.283 183.684 230.39C176.073 217.XMR.355 201.548 120.336 214.44 113.191C227.XMR120.336 323.018 130.355 330.XMR.474 230.39C323.018 243.283 312.766 253.379 299.718 260.68C286.826 267.981 272.69 271.631 257.312 271.631ZM257.312 223.4C267.564 223.4 275.486 220.138 281.078 213.614C286.67 206.935 289.466 198.003 289.466 186.819C289.466 175.48 286.67 166.548 281.078 160.024C275.XMR.721 166.548 224.925 175.XMR4 257.312 223.4ZM490.099 105.036V146.044H446.295V270H394.569V146.044H351.231V105.036H490.099Z" fill="white"/>
<path d="M808.092 225.XMR.798C839.547 279.244 834.732 290.428 825.101 298.35C815.626 306.117 801.956 310 784.093 310H697.65V145.036H781.763C798.539 145.036 811.742 148.686 821.373 155.987C831.004 163.288 835.819 173.928 835.819 187.908C835.819 197.539 833.256 205.694 828.13 212.373C823.159 218.897 816.XMR.548C781.996 204.684 783.161 201.81 783.161 197.927C783.161 193.888 781.996 190.937 779.666 189.073C777.491 187.054 774.074 186.044 769.414 186.044H749.376V209.344ZM772.909 268.526C777.569 268.526 780.986 267.672 783.161 265.963C785.XMR.376V268.526H772.909ZM937.312 311.631C921.779 311.631 907.488 307.981 894.44 300.68C881.548 293.379 871.296 283.283 863.684 270.39C856.073 257.XMR.355 881.548 160.336 894.44 153.191C907.XMR160.336 1003.02 170.355 1010.XMR.XMR 311.631ZM937.312 263.4C947.564 263.4 955.486 260.138 961.078 253.614C966.67 246.935 969.466 238.003 969.466 226.819C969.466 215.48 966.67 206.548 961.078 200.024C955.XMR.721 206.548 904.925 215.XMR4 937.312 263.4ZM1170.1 145.036V186.044H1126.3V310H1074.57V186.044H1031.23V145.036H1170.1ZM1342.34 310H1290.61L1235.85 227.052V310H1184.13V145.036H1235.85L1290.61 229.382V145.036H1342.34V310ZM1471.49 285.069H1416.5L1408.34 310H1354.05L1414.4 145.036H1474.05L1534.16 310H1479.64L1471.49 285.069ZM1458.9 246.158L1443.99 200.257L1429.08 246.158H1458.9ZM1744.2 145.036V310H1692.71V227.751L1667.31 310H1623.04L1597.64 227.751V310H1545.92V145.036H1609.29L1645.64 244.061L1681.06 145.036H1744.2ZM1819.26 186.277V206.548H1870.52V245.459H1819.26V268.759H1877.51V310H1767.54V145.036H1877.51V186.277H1819.26Z" fill="white"/>
<path d="M28.6 378.792H64.744V387H18.52V286.344H28.6V378.792ZM124.345 388.008C115.033 388.008 106.585 385.848 99.0014 381.528C91.4174 377.112 85.4174 371.016 81.0014 363.24C76.6814 355.368 74.5214 346.488 74.5214 336.6C74.5214 326.712 76.6814 317.88 81.0014 310.104C85.XMR753 285.192 142.249 287.4 149.833 291.816C157.417 296.136 163.369 302.232 167.689 310.104C172.009 317.88 174.169 326.712 174.169 336.6C174.169 346.XMR848 133.753 388.008 124.345 388.008ZM124.345 379.224C131.833 379.224 138.553 377.496 144.505 374.04C150.XMR 328.056 162.073 320.568 158.617 314.136C155.161 307.704 150.XMR 295.848 104.185 299.304C98.2334 302.76 93.5294 307.704 90.0734 314.136C86.6174 320.568 84.8894 328.056 84.8894 336.6C84.8894 345.144 86.6174 352.68 90.0734 359.208C93.5294 365.64 98.2334 370.584 104.185 374.04C110.137 377.XMR.168C252.71 296.328 245.798 294.408 237.83 294.XMR424C200.102 320.76 198.374 328.152 198.374 336.6C198.374 345.048 200.102 352.488 203.558 358.92C207.014 365.352 211.718 370.296 217.67 373.752C223.622 377.208 230.342 378.936 237.83 378.936C244.838 378.936 251.126 377.XMR276.134 341.784H233.798V333.576H286.79V340.92C286.31 349.752 283.91 357.768 279.59 364.968C275.27 372.072 269.XMR07 385.848 212.XMR006 336.6C188.006 326.712 190.166 317.88 194.XMR 285.192C248.582 285.192 257.99 287.88 266.054 293.256C274.118 298.632 279.974 306.12 283.622 315.72H271.814ZM350.47 388.008C341.158 388.008 332.71 385.848 325.126 381.528C317.542 377.112 311.542 371.016 307.126 363.24C302.806 355.368 300.646 346.488 300.646 336.6C300.646 326.712 302.806 317.88 307.126 310.104C311.542 302.232 317.542 296.136 325.126 291.816C332.71 287.4 341.158 285.192 350.47 285.192C359.878 285.192 368.374 287.4 375.958 291.816C383.542 296.136 389.494 302.232 393.814 310.104C398.134 317.88 400.294 326.712 400.294 336.6C400.294 346.XMR848 359.878 388.008 350.47 388.008ZM350.XMR 359.208C388.198 352.68 389.926 345.144 389.926 336.6C389.926 328.056 388.198 320.568 384.742 314.136C381.286 307.704 376.582 302.76 370.63 299.304C364.678 295.848 357.958 294.12 350.XMR314.136C312.742 320.568 311.014 328.056 311.014 336.6C311.014 345.144 312.742 352.68 316.198 359.208C319.654 365.64 324.358 370.584 330.31 374.04C336.262 377.496 342.982 379.224 350.47 379.224Z" fill="white"/>
<rect x="577" y="81" width="11" height="338" rx="5.5" fill="white" fill-opacity="0.32"/>
</svg>
